<?xml version="1.0" standalone="no"?>
<!DOCTYPE svg PUBLIC "-//W3C//DTD SVG 20010904//EN"
 "http://www.w3.org/TR/2001/REC-SVG-20010904/DTD/svg10.dtd">
<svg version="1.0" xmlns="http://www.w3.org/2000/svg"
 width="2500.000000pt" height="2500.000000pt" viewBox="0 0 2500.000000 2500.000000"
 preserveAspectRatio="xMidYMid meet">
<metadata>
Created by potrace 1.14, written by Peter Selinger 2001-2017
</metadata>
<g transform="translate(0.000000,2500.000000) scale(0.100000,-0.100000)"
fill="#000000" stroke="none">
<path d="M6705 20977 c11 -10 44 -38 72 -63 121 -104 245 -295 293 -449 25
-83 50 -238 50 -315 0 -241 -108 -536 -306 -833 -82 -123 -86 -132 -73 -153 8
-13 68 -108 135 -211 396 -614 670 -1182 819 -1697 38 -133 92 -371 107 -476
2 -14 8 20 12 75 14 183 36 409 50 517 16 124 15 129 -80 324 -19 39 -34 74
-34 78 0 10 -137 286 -170 344 -6 9 -13 24 -17 32 -4 8 -17 32 -30 52 -13 21
-23 43 -23 49 0 6 -6 17 -12 24 -31 34 -38 45 -38 56 0 6 -17 39 -37 73 -58
94 -61 98 -85 144 -12 23 -26 42 -30 42 -4 0 -8 6 -8 13 0 8 -11 27 -25 43
-14 16 -25 34 -25 41 0 6 -6 18 -12 25 -7 8 -17 21 -23 30 -5 9 -25 37 -42 62
-18 26 -33 52 -33 59 0 7 -7 21 -15 31 -20 26 -19 66 2 118 18 45 71 131 85
136 4 2 8 11 8 20 0 10 9 28 20 42 11 14 20 30 20 36 0 6 9 21 20 34 11 13 20
31 20 42 0 10 5 18 10 18 6 0 10 6 10 14 0 7 13 44 29 82 64 149 101 332 101
489 -1 104 -39 328 -59 348 -6 6 -11 18 -11 27 0 20 -76 171 -122 242 -40 61
-177 205 -245 257 -71 54 -135 96 -203 132 -36 19 -66 37 -68 42 -2 4 -11 7
-21 7 -9 0 -21 3 -27 8 -5 4 0 -1 11 -11z"/>
<path d="M4445 20979 c-443 -38 -699 -149 -751 -325 -14 -49 -15 -68 -6 -112
14 -68 80 -206 171 -357 249 -415 345 -704 382 -1150 46 -548 -110 -1224 -516
-2250 -318 -804 -469 -1338 -506 -1794 -13 -160 -7 -190 55 -283 244 -368 665
-543 1392 -578 222 -10 534 0 733 25 984 124 1646 598 1900 1360 125 376 159
837 90 1245 -107 641 -461 1406 -1037 2243 -68 100 -126 187 -129 193 -2 7 34
61 82 121 190 238 328 475 376 648 30 103 32 261 5 350 -60 201 -212 351 -468
461 -221 95 -530 160 -913 194 -166 15 -726 21 -860 9z m1060 -420 c148 -43
282 -152 326 -267 59 -154 20 -447 -82 -619 -65 -108 -166 -200 -286 -262 -88
-44 -224 -16 -288 61 -123 146 -219 613 -171 831 52 232 243 330 501 256z
m114 -1680 c117 -26 257 -137 329 -261 104 -177 185 -519 167 -708 -29 -311
-240 -508 -591 -552 -168 -21 -290 15 -379 115 -76 84 -88 131 -93 362 -4 192
15 549 39 720 34 250 254 386 528 324z"/>
<path d="M5400 20130 c0 -16 5 -64 12 -107 13 -90 24 -78 35 39 5 62 4 73 -12
84 -28 21 -35 17 -35 -16z"/>
<path d="M5495 18477 c-17 -53 -47 -717 -32 -717 3 0 30 5 59 11 155 33 203
109 178 282 -27 186 -86 353 -141 403 -31 28 -59 37 -64 21z"/>
<path d="M13943 20550 c20 -21 48 -63 63 -92 96 -188 66 -370 -108 -675 -68
-120 -118 -229 -118 -257 0 -18 50 -30 244 -56 133 -19 160 -20 171 -9 14 15
88 159 127 249 60 135 84 303 58 400 -23 86 -35 125 -41 130 -3 3 -9 15 -13
28 -4 12 -12 22 -17 22 -5 0 -9 7 -9 15 0 32 -219 225 -255 225 -4 0 -13 7
-21 15 -9 8 -25 15 -37 15 -12 0 -31 7 -41 15 -37 28 -38 15 -3 -25z"/>
<path d="M12795 20404 c-168 -24 -276 -62 -314 -110 -20 -25 -22 -37 -18 -85
3 -31 21 -103 42 -160 62 -175 86 -270 92 -364 9 -155 -33 -280 -130 -383 -80
-84 -173 -131 -317 -158 -90 -17 -115 -33 -123 -74 -10 -46 10 -171 32 -200
10 -14 35 -30 57 -37 21 -6 80 -23 129 -38 50 -14 133 -47 185 -72 76 -37 109
-60 166 -117 l71 -71 22 -115 c35 -186 41 -245 48 -440 13 -413 -73 -828 -322
-1545 -250 -720 -338 -1124 -314 -1447 20 -276 83 -433 233 -583 100 -99 188
-153 331 -200 307 -103 803 -106 1083 -7 125 45 209 97 299 187 66 67 90 100
127 177 57 117 91 247 107 409 20 212 -4 385 -88 644 -74 227 -162 425 -377
850 -331 654 -447 962 -502 1335 -23 157 -15 410 16 524 53 196 146 324 300
415 46 27 127 44 345 76 247 35 225 28 225 78 -1 57 -16 118 -32 128 -20 13
-98 28 -253 50 -243 34 -327 65 -423 154 -79 73 -114 145 -120 248 -9 143 33
271 160 494 69 121 118 234 118 272 0 28 -61 76 -127 101 -128 49 -223 62
-468 65 -126 2 -243 1 -260 -1z"/>
<path d="M20112 19580 c24 -26 59 -74 78 -107 l34 -60 53 34 c46 31 51 37 40
54 -6 10 -19 19 -29 19 -9 0 -20 5 -23 10 -8 12 -93 58 -153 81 l-42 17 42
-48z"/>
<path d="M17790 19474 c195 -184 283 -377 311 -683 34 -359 -73 -668 -306
-890 l-86 -81 46 0 c25 0 73 -9 107 -21 227 -76 375 -303 493 -754 105 -400
184 -1029 185 -1470 l0 -120 49 145 c50 152 124 346 185 490 l36 85 -15 120
c-9 66 -23 152 -31 190 -8 39 -19 93 -24 120 -18 108 -81 349 -93 361 -4 4 -7
15 -7 25 0 19 -44 139 -89 239 -34 78 -125 211 -188 275 -43 43 -80 75 -88 75
-3 0 -21 14 -40 32 -45 40 -46 79 -7 134 30 41 83 132 113 194 31 65 71 205
85 300 29 198 7 484 -46 615 -4 11 -16 46 -26 78 -10 31 -22 57 -26 57 -4 0
-8 6 -8 14 0 8 -6 21 -12 28 -7 7 -22 31 -33 53 -11 22 -24 45 -30 52 -5 6
-21 25 -34 43 -48 63 -208 210 -228 210 -6 0 -13 4 -15 8 -4 9 -118 80 -168
104 -19 9 -46 22 -59 28 -13 7 9 -19 49 -56z"/>
<path d="M10977 19452 c189 -184 276 -399 290 -717 16 -372 -103 -666 -356
-878 l-45 -37 45 0 c57 0 141 -24 199 -58 55 -32 152 -122 191 -179 210 -304
370 -1063 398 -1892 5 -133 11 -244 13 -246 3 -3 10 32 17 78 17 112 110 477
172 677 57 185 56 144 5 385 -14 66 -26 127 -26 136 0 9 -7 41 -16 70 -8 30
-23 79 -32 109 -58 201 -150 416 -205 481 -10 11 -17 23 -17 27 0 14 -138 150
-185 182 -77 53 -80 96 -13 184 21 28 38 55 38 60 0 5 6 17 13 25 13 15 23 36
69 156 62 159 91 395 68 560 -17 126 -38 230 -62 300 -18 55 -94 213 -107 225
-4 3 -19 25 -35 49 -24 38 -190 211 -202 211 -2 0 -27 17 -56 37 -50 37 -108
71 -158 96 -14 6 -27 14 -30 18 -3 3 -15 8 -28 12 -16 4 1 -18 55 -71z"/>
<path d="M9790 19400 c-239 -18 -466 -103 -651 -242 -94 -71 -244 -228 -320
-334 -181 -253 -347 -633 -449 -1027 -105 -407 -150 -785 -150 -1260 0 -432
53 -787 179 -1207 124 -410 272 -698 457 -890 l87 -90 62 0 c155 0 353 -86
373 -163 10 -38 26 -42 241 -57 431 -29 812 79 1132 319 335 252 510 544 538
901 8 99 -1 489 -14 630 -70 740 -191 1236 -343 1402 l-25 27 -41 -29 c-23
-15 -83 -66 -134 -112 -229 -204 -343 -285 -483 -341 -112 -45 -182 -57 -334
-57 -489 0 -792 189 -870 544 -23 104 -17 267 13 344 60 154 193 249 384 273
77 10 281 0 463 -21 44 -5 142 -14 217 -20 l138 -10 88 34 c199 77 315 152
393 256 90 120 126 260 116 455 -10 192 -47 300 -139 400 -178 195 -545 304
-928 275z m300 -288 c179 -65 317 -196 370 -353 31 -91 26 -239 -11 -319 -56
-121 -143 -181 -272 -188 -43 -3 -271 3 -505 12 -485 20 -500 22 -568 93 -59
60 -78 122 -71 227 8 135 76 266 201 392 70 70 134 109 226 142 62 21 78 22
315 19 233 -2 255 -4 315 -25z"/>
<path d="M9546 18706 l-30 -23 150 -7 c82 -3 203 -9 269 -13 109 -5 119 -4
107 10 -8 9 -33 25 -56 36 -38 19 -61 21 -227 21 -178 0 -185 -1 -213 -24z"/>
<path d="M16624 19399 c-427 -32 -782 -266 -1046 -692 -70 -112 -196 -376
-253 -527 -131 -353 -219 -774 -256 -1225 -16 -199 -16 -649 0 -800 29 -277
87 -558 170 -835 189 -626 445 -982 797 -1109 305 -111 755 -113 1090 -6 114
37 324 144 433 222 316 226 503 505 557 829 13 82 15 145 10 369 -17 765 -172
1546 -348 1749 l-33 38 -52 -39 c-29 -22 -107 -89 -174 -149 -215 -193 -375
-291 -549 -335 -76 -19 -102 -21 -265 -16 -128 4 -205 11 -267 26 -337 78
-536 284 -567 586 -29 285 91 475 339 536 72 18 280 15 475 -5 83 -8 208 -20
278 -26 151 -12 177 -6 367 87 96 48 126 68 190 132 129 128 174 249 173 466
0 226 -45 358 -157 469 -189 186 -536 283 -912 255z m238 -270 c129 -27 288
-128 362 -229 59 -80 87 -156 93 -255 12 -184 -65 -321 -211 -378 -48 -18 -66
-19 -296 -13 -504 15 -762 31 -800 50 -175 90 -192 329 -39 553 95 139 248
253 369 276 53 10 471 7 522 -4z"/>
<path d="M16383 18705 l-28 -24 37 -1 c21 0 139 -5 264 -11 124 -6 228 -8 231
-6 3 3 -19 19 -49 36 l-53 31 -187 0 c-185 0 -187 0 -215 -25z"/>
<path d="M19344 19400 c-149 -13 -258 -52 -307 -110 -85 -100 -17 -369 225
-890 119 -257 154 -338 206 -490 82 -239 119 -460 107 -640 -21 -325 -134
-700 -375 -1240 -249 -557 -353 -928 -336 -1195 24 -395 272 -629 741 -700
117 -18 459 -20 616 -5 530 52 812 225 836 512 7 82 -1 115 -82 323 -73 186
-164 396 -333 760 -229 497 -341 790 -422 1110 -102 400 -112 699 -39 1060 73
356 203 571 399 664 49 23 67 26 170 26 103 0 120 -3 164 -25 62 -32 130 -107
150 -167 25 -73 20 -192 -14 -365 -17 -84 -30 -164 -28 -177 5 -42 47 -56 174
-56 107 0 112 1 186 37 57 29 92 56 145 112 115 120 132 191 113 456 -34 475
-168 877 -321 955 -78 41 -349 -7 -536 -95 -104 -48 -255 -139 -496 -297 -104
-68 -192 -121 -197 -118 -22 13 -171 231 -200 292 -18 38 -44 91 -57 120 -41
86 -119 126 -278 143 -49 5 -97 9 -105 8 -8 0 -56 -4 -106 -8z"/>
<path d="M21845 19338 c125 -274 206 -684 209 -1063 1 -211 -13 -276 -92 -429
-38 -76 -64 -109 -152 -197 -122 -123 -214 -182 -360 -231 -90 -31 -103 -32
-250 -32 -232 -1 -356 41 -465 155 -81 85 -123 194 -126 328 -1 45 -1 44 -19
-29 -71 -292 -58 -595 42 -958 79 -289 171 -524 393 -1008 250 -543 393 -891
430 -1047 56 -235 -30 -527 -212 -717 -193 -203 -457 -317 -873 -375 -179 -25
-623 -31 -780 -11 -359 48 -627 167 -842 374 -38 36 -68 62 -68 57 0 -19 97
-187 145 -250 64 -85 147 -169 198 -203 20 -13 37 -29 37 -33 0 -5 6 -9 14 -9
8 0 16 -3 18 -8 8 -20 256 -152 284 -152 8 0 22 -4 32 -9 54 -30 208 -70 377
-98 123 -21 553 -24 720 -5 245 27 496 84 621 142 23 11 54 22 68 26 14 3 26
10 26 15 0 5 7 9 15 9 9 0 28 8 43 19 15 10 54 36 87 57 75 48 86 57 154 125
102 102 119 126 190 264 37 72 71 176 71 218 0 13 5 28 11 34 19 19 6 278 -19
368 -24 85 -72 223 -103 291 -41 94 -39 99 71 157 163 86 407 143 659 154 303
12 625 -64 868 -205 38 -22 111 -61 163 -87 217 -109 426 -239 523 -325 56
-50 167 -214 225 -333 102 -207 162 -449 163 -655 1 -119 -12 -154 -71 -204
-44 -39 -228 -138 -254 -138 -9 0 -36 16 -61 35 -89 68 -152 70 -455 14 -58
-10 -125 -22 -150 -25 -25 -3 -56 -9 -70 -14 -65 -22 -91 -21 -133 9 -64 43
-117 68 -188 86 -90 24 -228 15 -329 -20 -41 -14 -123 -33 -182 -41 -59 -8
-163 -30 -230 -50 -68 -20 -151 -42 -184 -50 -81 -17 -140 -41 -189 -75 -24
-17 -97 -44 -180 -68 -188 -55 -251 -88 -331 -174 -68 -74 -78 -93 -41 -83 33
10 167 36 183 36 8 0 11 -6 8 -15 -4 -8 -1 -15 5 -15 6 0 11 5 11 10 0 6 15
10 33 9 31 0 32 0 7 -11 -24 -10 -23 -11 29 -34 54 -24 56 -24 102 -8 44 16
86 14 75 -4 -3 -5 -23 -14 -44 -21 l-40 -13 35 -31 c33 -29 35 -29 76 -17 23
6 47 16 53 21 12 10 51 -17 96 -66 34 -37 35 -53 3 -61 -14 -3 -25 -10 -25
-15 0 -5 -9 -9 -20 -9 -26 0 -25 -2 6 -50 24 -37 57 -52 66 -32 4 12 78 23 78
12 0 -5 -9 -14 -21 -21 -17 -8 -20 -17 -15 -40 3 -16 2 -29 -3 -29 -5 0 -11
13 -14 29 -5 24 -10 28 -27 24 -26 -7 -25 -17 6 -78 34 -68 57 -184 55 -277
-1 -49 3 -78 9 -78 6 0 27 7 47 15 20 8 38 13 41 10 9 -9 -17 -115 -43 -169
-14 -29 -41 -74 -60 -98 -41 -55 -152 -138 -237 -180 -61 -29 -62 -31 -38 -41
14 -6 77 -11 140 -11 133 -1 158 5 336 90 65 31 130 56 144 56 51 -2 128 22
235 73 61 29 137 65 170 80 116 53 160 77 202 111 23 19 77 51 120 70 166 76
190 91 254 154 70 70 108 137 140 250 20 69 31 82 94 110 22 9 54 28 70 42 17
14 44 32 60 41 17 8 41 27 54 41 14 14 30 26 36 26 7 0 33 16 58 35 25 19 49
35 53 35 4 0 35 21 70 48 73 54 112 119 123 204 l6 52 118 62 c261 137 324
231 320 479 -2 140 -14 219 -53 370 -69 262 -184 486 -335 652 -285 314 -880
613 -1405 707 -112 20 -303 37 -360 31 -25 -2 -78 -7 -119 -10 -156 -14 -422
-90 -604 -174 -100 -46 -97 -45 -97 -29 0 10 -45 113 -71 160 -5 10 -9 25 -9
33 0 8 -3 15 -7 15 -5 0 -16 21 -27 48 -17 43 -96 214 -117 254 -5 10 -9 24
-9 32 0 8 -3 16 -7 18 -5 2 -16 21 -26 43 -10 22 -25 53 -33 68 -8 16 -14 37
-14 48 0 10 -4 19 -9 19 -5 0 -12 12 -16 27 -3 15 -21 59 -39 97 -18 39 -54
130 -80 201 -27 72 -52 139 -57 150 -18 44 -59 178 -59 194 0 9 -7 29 -15 45
-8 15 -15 39 -15 51 0 13 -12 67 -26 121 -31 118 -45 324 -24 349 17 20 36 19
72 -6 126 -90 265 -129 459 -129 229 0 391 58 589 209 176 135 285 350 306
601 6 77 4 85 -24 148 -27 59 -32 85 -42 212 -26 328 -80 572 -184 825 -22 55
-46 106 -53 113 -7 7 -13 19 -13 25 0 7 -11 25 -25 41 -14 16 -25 33 -25 37 0
9 -136 149 -144 149 -3 0 10 -33 29 -72z m229 -6906 c2 -4 7 -25 11 -47 l6
-40 -17 33 c-10 19 -23 36 -31 39 -7 3 -10 9 -7 14 6 11 31 12 38 1z"/>
<path d="M14530 19237 c67 -119 99 -349 67 -474 -40 -155 -132 -254 -281 -302
-34 -11 -157 -34 -274 -51 -130 -19 -223 -37 -238 -46 -31 -21 -71 -105 -85
-179 -17 -90 -6 -319 21 -445 29 -140 113 -392 190 -570 34 -80 155 -329 269
-555 299 -591 412 -882 471 -1208 73 -406 -5 -861 -197 -1150 -259 -389 -728
-571 -1385 -536 -476 25 -811 152 -1064 404 -66 66 -85 81 -73 57 10 -18 22
-45 29 -60 15 -39 98 -170 125 -198 5 -6 30 -36 54 -65 63 -76 161 -157 230
-189 73 -35 126 -88 160 -159 23 -50 26 -68 25 -161 0 -58 -11 -167 -22 -242
-41 -259 -26 -372 90 -668 116 -298 130 -335 154 -425 36 -135 55 -256 57
-369 2 -91 0 -105 -22 -144 -32 -55 -105 -104 -206 -138 -73 -25 -93 -28 -240
-28 -156 -1 -161 0 -212 26 -56 30 -116 86 -139 130 -28 53 -45 155 -51 298
-7 166 3 280 52 615 47 325 58 438 53 556 -7 159 -49 259 -109 259 -52 0 -91
-86 -111 -246 -15 -117 -2 -321 44 -679 26 -210 31 -286 32 -470 1 -202 -1
-226 -22 -292 -29 -93 -67 -134 -148 -156 -120 -33 -234 -48 -333 -45 l-99 3
21 -30 c113 -159 252 -210 476 -174 140 22 186 45 273 131 69 69 95 80 122 53
8 -8 17 -15 21 -15 3 0 35 -29 69 -64 90 -91 152 -115 296 -116 70 0 192 18
233 35 24 10 73 -37 132 -126 142 -213 186 -533 115 -839 -50 -212 -120 -391
-300 -760 -315 -647 -350 -827 -254 -1298 53 -257 154 -584 291 -942 280 -728
402 -1153 434 -1510 6 -69 13 -141 16 -160 5 -34 6 -34 30 35 13 39 56 169 94
290 79 247 78 224 24 390 -12 39 -30 97 -40 130 -10 33 -21 68 -26 77 -5 10
-9 23 -9 29 0 6 -7 27 -16 47 -9 21 -22 52 -30 70 -8 18 -14 39 -14 47 0 15
-3 23 -33 83 -9 19 -17 39 -17 45 0 11 -29 87 -64 172 -7 17 -19 48 -26 70 -7
22 -18 54 -25 70 -7 17 -18 44 -25 60 -39 94 -157 468 -185 585 -77 326 -97
492 -78 665 6 61 16 126 21 145 17 62 63 204 73 223 5 9 19 43 30 75 12 31 73
163 136 292 63 129 121 250 129 268 32 74 49 107 57 110 4 2 7 14 7 26 0 12 7
31 15 42 8 10 15 27 15 37 0 9 4 25 9 35 10 21 30 77 41 117 5 17 13 44 19 60
6 17 13 42 16 57 3 15 16 39 29 54 l23 28 -39 85 c-158 342 -198 447 -198 527
0 60 22 180 44 242 12 33 13 48 4 67 -6 14 -15 25 -20 25 -4 0 -8 5 -8 11 0 7
-36 47 -80 90 -44 42 -80 82 -80 88 0 6 -6 11 -12 11 -9 0 -10 3 -2 8 6 4 11
14 11 22 0 8 18 44 41 80 34 55 43 78 51 146 19 150 -26 398 -116 642 -20 53
-42 114 -49 135 -8 20 -18 45 -23 55 -12 23 -54 134 -74 197 -9 28 -26 99 -38
159 -23 117 -24 109 14 358 6 46 12 138 11 206 l0 122 -45 87 c-24 48 -44 95
-45 105 -2 22 49 31 101 17 22 -6 65 -14 95 -19 30 -5 91 -14 135 -21 105 -16
555 -16 650 1 39 7 91 15 117 17 l48 5 41 79 c106 203 219 252 394 170 41 -19
71 -28 73 -22 2 6 8 11 13 11 5 0 35 19 68 43 l58 43 -17 55 c-9 30 -28 77
-42 104 -56 110 -70 199 -43 276 40 111 164 168 365 169 l86 0 14 38 c7 20 17
57 21 82 21 120 31 167 40 183 8 14 1 40 -29 110 -151 352 -288 878 -336 1289
-15 121 -17 128 -78 249 -34 68 -65 126 -68 129 -5 5 -176 347 -227 455 -12
28 -23 58 -23 68 0 9 -4 17 -8 17 -5 0 -19 29 -31 65 -13 36 -27 68 -32 71 -5
3 -9 14 -9 24 0 11 -7 34 -14 52 -28 62 -78 233 -97 328 -31 153 -40 273 -29
364 9 74 34 146 52 146 3 0 14 7 22 16 10 9 54 22 104 30 293 47 347 60 442
110 52 27 190 154 190 175 0 5 10 26 23 47 34 54 57 166 57 272 0 136 -35 265
-105 390 -28 50 -156 170 -181 170 -4 0 -27 9 -50 20 -23 12 -56 25 -73 30
l-30 8 29 -51z"/>
<path d="M11794 18515 c9 -37 57 -136 73 -153 7 -7 13 -16 13 -20 1 -15 79
-91 137 -134 64 -47 197 -106 282 -125 24 -6 24 -6 17 63 -4 38 -12 97 -17
131 l-11 61 -70 31 c-38 18 -115 43 -171 57 -99 25 -173 56 -231 97 l-29 21 7
-29z"/>
<path d="M10430 17607 c-79 -28 -94 -31 -210 -30 -69 1 -192 9 -273 17 -242
26 -418 37 -465 30 l-44 -7 4 -72 c12 -178 129 -250 429 -262 104 -5 135 -3
180 12 116 38 206 95 329 209 30 28 77 70 104 94 27 23 45 42 40 41 -5 -1 -47
-15 -94 -32z"/>
<path d="M17265 17607 c-82 -28 -100 -31 -210 -30 -66 1 -214 11 -330 23 -224
23 -428 30 -442 17 -13 -13 -4 -124 13 -165 44 -106 166 -157 400 -169 116 -5
139 -4 200 15 114 35 211 102 394 272 41 38 73 69 70 69 -3 -1 -45 -15 -95
-32z"/>
<path d="M7821 16043 c-4 -133 -58 -416 -115 -603 -270 -890 -1012 -1484
-2079 -1665 -445 -75 -1049 -77 -1470 -5 -490 83 -856 266 -1107 550 -38 44
-70 78 -70 75 0 -10 42 -100 49 -105 3 -3 14 -22 24 -43 23 -51 93 -146 164
-223 12 -13 27 -31 35 -41 15 -20 97 -97 175 -162 48 -40 76 -60 113 -77 8 -4
17 -11 20 -14 4 -6 77 -48 140 -81 52 -28 150 -69 163 -69 9 0 18 -4 22 -9 3
-6 51 -24 108 -41 143 -43 152 -46 242 -65 44 -9 100 -21 125 -27 25 -6 81
-14 125 -19 44 -5 121 -13 170 -18 248 -27 763 -22 1015 10 153 20 469 80 545
104 22 7 69 21 105 30 36 10 69 22 75 27 5 4 16 8 25 8 8 0 51 14 95 30 86 33
92 35 177 74 31 14 61 26 67 26 5 0 16 6 23 13 7 6 43 27 78 46 116 62 254
147 271 167 6 8 17 14 23 14 6 0 19 8 28 18 9 9 23 22 30 27 7 6 42 32 77 59
93 71 249 229 331 336 19 25 45 56 57 70 13 14 23 29 23 33 0 5 6 15 13 22 27
31 37 44 37 51 0 4 11 22 25 40 14 18 25 37 25 43 0 5 6 16 13 23 6 8 28 45
47 83 19 39 37 72 40 75 9 8 70 164 70 178 0 6 5 12 10 12 6 0 10 9 10 20 0
11 8 36 19 55 18 34 18 35 -10 132 -63 217 -115 466 -167 798 -9 56 -10 57
-11 18z"/>
<path d="M11701 15404 c0 -11 3 -14 6 -6 3 7 2 16 -1 19 -3 4 -6 -2 -5 -13z"/>
<path d="M11670 15118 c-57 -293 -211 -568 -451 -807 -319 -316 -721 -515
-1165 -576 -121 -17 -397 -23 -470 -11 l-41 7 8 42 c5 23 13 58 17 77 12 49
-10 121 -44 146 -14 10 -31 24 -38 30 -6 5 -35 19 -64 29 -63 23 -61 25 -96
-90 -63 -208 -92 -344 -111 -525 -37 -342 2 -662 120 -980 118 -319 158 -474
157 -610 -2 -358 -278 -551 -787 -550 -132 1 -245 16 -323 43 l-44 15 23 -26
c53 -62 131 -129 176 -152 26 -14 50 -27 53 -30 6 -6 99 -34 163 -49 60 -14
312 -14 391 0 100 17 211 43 216 49 3 4 21 12 39 19 34 11 36 10 79 -31 59
-58 141 -190 164 -261 24 -78 23 -188 -2 -286 -41 -163 -150 -446 -328 -851
-149 -341 -233 -578 -288 -816 -36 -158 -38 -324 -6 -499 92 -491 427 -1611
740 -2475 54 -151 110 -306 123 -345 l23 -70 13 115 c7 63 24 180 38 260 23
138 23 148 8 195 -9 28 -20 58 -25 68 -11 22 -82 238 -122 372 -15 50 -34 106
-42 125 -7 19 -20 60 -28 90 -8 30 -19 69 -25 85 -6 17 -25 77 -42 135 -17 58
-34 114 -39 125 -4 11 -16 47 -25 80 -9 33 -27 96 -41 140 -63 211 -172 631
-185 710 -4 28 -14 79 -23 115 -23 97 -38 275 -31 360 7 99 49 281 92 405 19
55 39 116 43 135 8 32 61 170 94 245 7 17 22 51 32 77 11 27 22 48 27 48 4 0
7 11 7 24 0 14 4 27 9 31 5 3 15 22 22 42 7 21 29 74 49 118 21 44 43 97 49
117 7 21 17 40 22 43 5 4 9 17 9 30 0 13 4 26 8 29 5 3 24 45 42 93 18 48 38
102 45 118 7 17 20 55 30 85 10 30 21 59 26 65 5 5 9 23 9 40 0 17 4 35 10 41
17 17 32 165 27 254 -6 90 -25 151 -74 233 -15 27 -32 56 -38 65 -16 27 -58
85 -75 103 -8 9 -50 52 -92 97 -42 44 -75 88 -74 96 3 19 58 95 69 96 4 0 7 6
7 13 0 7 13 20 28 29 36 21 56 12 133 -63 73 -70 109 -98 137 -105 12 -3 22
-10 22 -15 0 -5 5 -9 11 -9 6 0 25 -6 42 -14 53 -23 120 -44 162 -50 22 -4 66
-11 98 -17 l57 -9 54 55 54 55 79 0 c93 0 334 28 347 41 6 5 17 9 26 9 39 0
138 65 203 133 37 39 67 75 67 79 0 5 -23 31 -51 59 -66 65 -91 123 -97 224
-5 97 16 225 64 394 l35 125 -21 65 c-12 37 -26 70 -31 75 -5 6 -9 25 -9 43 0
18 -4 33 -9 33 -4 0 -14 40 -21 88 -11 76 -10 101 4 182 23 134 32 171 44 200
6 14 18 61 27 105 9 44 21 88 26 97 13 25 11 161 -2 195 -28 69 -50 110 -76
138 -33 36 -138 115 -153 115 -15 0 -45 34 -46 53 -1 9 2 17 6 17 4 0 38 18
74 40 36 22 70 40 75 40 5 0 14 6 20 14 7 8 26 21 44 30 36 18 69 38 77 46 3
3 28 21 55 39 28 19 52 38 55 42 3 4 26 23 52 43 93 70 240 217 294 292 10 15
27 35 37 46 9 10 17 22 17 27 0 5 3 11 8 13 4 2 23 27 41 56 19 30 40 60 48
68 11 11 10 22 -10 71 -80 191 -116 379 -119 606 0 70 -2 127 -3 127 -1 0 -8
-28 -15 -62z m-1107 -1423 c143 -30 248 -98 292 -190 26 -53 27 -56 15 -127
-7 -40 -30 -134 -51 -209 -63 -224 -73 -278 -73 -379 0 -115 17 -180 113 -423
129 -324 155 -429 155 -607 0 -166 -15 -210 -93 -283 -66 -60 -123 -91 -226
-120 -101 -28 -449 -36 -592 -13 -315 49 -465 169 -535 424 -37 135 -28 424
18 625 13 53 14 77 6 110 -27 108 -34 150 -45 262 -14 158 -14 252 0 411 18
196 37 229 129 222 l51 -4 23 43 c62 117 262 233 460 266 63 11 290 6 353 -8z"/>
<path d="M10215 13596 c-208 -42 -354 -139 -390 -260 -38 -127 4 -236 91 -236
47 0 92 43 127 120 65 144 115 190 207 190 71 0 115 -26 140 -83 27 -58 25
-103 -6 -166 -33 -65 -95 -118 -309 -261 -98 -65 -179 -127 -204 -157 -23 -26
-67 -97 -97 -158 -85 -172 -124 -355 -124 -585 1 -323 118 -480 409 -543 80
-18 130 -21 306 -21 281 0 382 24 479 114 56 52 66 84 66 212 0 154 -24 246
-142 547 -160 409 -164 483 -43 916 20 72 39 151 42 176 5 43 3 49 -33 88 -70
78 -161 110 -334 116 -75 3 -139 0 -185 -9z m121 -747 c17 -19 19 -39 19 -228
0 -228 -7 -264 -56 -306 -39 -32 -109 -34 -157 -5 -57 35 -77 95 -77 230 0
124 7 154 58 228 59 88 169 129 213 81z"/>
<path d="M10205 12702 c-31 -47 -47 -128 -39 -201 11 -94 48 -140 74 -92 13
26 14 331 0 331 -5 0 -21 -17 -35 -38z"/>
<path d="M10196 13277 c-13 -17 -38 -62 -55 -99 -57 -127 -154 -198 -252 -185
-33 4 -39 2 -39 -13 0 -33 12 -80 21 -80 19 0 343 224 385 266 37 36 44 50 44
82 0 45 -14 62 -51 62 -20 0 -35 -10 -53 -33z"/>
<path d="M18441 14890 c-2 -26 -96 -212 -143 -285 -107 -167 -277 -345 -458
-479 -405 -302 -864 -436 -1387 -405 -358 21 -646 110 -873 270 -90 64 -259
230 -324 319 -52 71 -70 90 -43 48 9 -15 17 -34 17 -42 0 -8 5 -16 11 -18 5
-2 12 -37 15 -78 4 -67 0 -87 -32 -180 -43 -129 -96 -340 -121 -486 -14 -86
-18 -162 -18 -359 1 -337 18 -432 148 -795 91 -258 127 -392 134 -510 23 -394
-283 -608 -841 -587 -95 3 -165 11 -216 25 -77 21 -98 20 -67 -2 9 -7 17 -17
17 -22 0 -22 129 -120 200 -152 47 -21 88 -33 180 -52 62 -13 323 -8 430 8 62
10 220 58 230 71 3 3 23 15 45 26 22 11 62 43 90 71 50 50 60 63 81 100 10 16
22 19 80 18 45 -1 73 4 82 13 18 18 23 17 54 -12 15 -14 58 -35 95 -46 90 -28
114 -41 165 -92 37 -36 93 -69 183 -107 11 -5 59 -16 108 -24 72 -13 98 -23
150 -57 368 -248 714 -743 971 -1392 235 -592 385 -1195 453 -1817 25 -232 25
-896 0 -1150 -51 -511 -147 -922 -299 -1284 -407 -974 -1186 -1519 -2343
-1641 -210 -22 -520 -29 -655 -16 -380 39 -709 173 -1001 409 -151 122 -284
318 -340 501 l-22 74 -37 -104 c-138 -394 -415 -671 -797 -798 -429 -144
-1023 -111 -1519 84 -481 189 -759 445 -870 802 l-28 87 -33 -100 c-96 -288
-313 -628 -508 -797 -230 -199 -456 -277 -883 -307 -374 -25 -609 -4 -849 75
-186 62 -350 162 -486 299 -133 134 -237 304 -312 511 -34 93 -84 301 -86 351
0 25 -1 26 -9 9 -4 -11 -16 -60 -25 -110 -75 -414 -346 -789 -697 -968 -165
-84 -288 -101 -673 -93 -154 4 -334 11 -400 17 -231 19 -483 85 -635 165 l-65
34 70 -68 c76 -73 137 -122 154 -122 6 0 11 -4 11 -8 0 -4 15 -15 33 -23 17
-9 48 -24 67 -34 19 -10 43 -22 53 -27 33 -16 161 -61 197 -69 199 -46 360
-66 595 -76 162 -6 172 -8 212 -34 77 -48 305 -62 474 -29 59 12 155 39 179
51 87 43 146 73 150 79 3 3 32 26 65 50 94 69 295 285 295 317 0 5 9 18 20 28
11 10 23 27 26 39 4 11 24 48 45 82 22 34 39 66 39 71 0 5 11 16 25 23 20 11
27 11 40 0 8 -7 15 -18 15 -25 0 -8 3 -15 8 -17 4 -1 23 -34 42 -73 32 -64
100 -173 125 -202 5 -6 21 -26 35 -44 34 -45 167 -179 208 -209 19 -14 47 -35
62 -47 15 -13 31 -23 34 -23 8 0 63 -38 84 -58 7 -6 19 -12 27 -12 7 0 35 -11
62 -24 26 -13 66 -31 88 -41 22 -9 49 -20 60 -25 95 -40 424 -90 593 -90 232
0 685 54 752 89 9 5 30 12 48 15 17 4 34 12 37 17 4 5 13 9 22 9 29 0 187 84
263 139 87 64 251 224 300 293 18 27 37 48 42 48 4 0 8 4 8 8 0 5 24 45 54 90
30 46 61 98 70 117 9 19 21 37 26 40 6 3 10 13 10 21 0 9 6 21 13 28 6 8 19
23 27 35 8 11 24 21 35 21 21 -1 55 -22 55 -34 0 -9 45 -69 83 -110 15 -17 27
-35 28 -41 1 -14 162 -157 229 -202 30 -21 57 -41 60 -44 3 -3 12 -9 20 -12 8
-4 42 -23 75 -42 67 -40 128 -69 280 -135 67 -30 270 -97 320 -105 22 -4 49
-12 59 -18 11 -5 45 -13 75 -18 31 -4 106 -16 166 -25 139 -22 569 -26 685 -6
178 31 315 70 436 127 41 19 79 35 84 35 4 0 15 6 22 14 8 7 32 23 54 34 21
11 49 30 61 41 12 12 26 21 31 21 4 0 27 18 51 40 23 22 45 40 48 40 11 0 149
155 180 202 14 21 30 38 34 38 5 0 9 7 9 16 0 8 6 22 13 29 28 33 37 45 37 53
0 5 9 17 20 27 27 25 62 13 96 -32 15 -21 32 -39 36 -41 4 -2 8 -9 8 -16 0
-15 177 -197 235 -242 35 -26 122 -85 177 -119 69 -42 129 -75 137 -75 5 0 11
-3 13 -7 2 -5 39 -23 83 -41 44 -19 89 -38 100 -43 42 -18 182 -62 225 -70 25
-5 83 -16 130 -24 178 -33 661 -30 915 7 39 5 95 13 125 17 96 14 325 63 335
72 5 5 22 9 38 9 15 0 37 5 48 11 11 5 55 19 97 30 42 11 81 25 87 30 5 5 18
9 30 9 12 0 30 7 41 15 10 8 25 15 31 15 17 0 104 40 248 113 66 33 130 65
142 71 13 6 23 14 23 19 0 4 9 7 20 7 11 0 20 4 20 10 0 5 14 17 32 26 121 63
402 304 532 458 22 27 49 56 59 65 9 8 17 21 17 28 0 7 3 13 8 13 17 0 232
323 232 349 0 6 4 11 8 11 12 0 74 130 75 155 0 11 -4 110 -8 220 -9 234 2
397 45 650 51 297 176 754 321 1170 l52 149 -7 201 c-3 110 -11 229 -17 265
-6 36 -14 106 -19 155 -5 50 -17 133 -25 185 -9 52 -20 120 -24 150 -18 111
-63 318 -97 440 -8 30 -19 71 -24 90 -17 63 -43 154 -57 198 -7 23 -13 49 -13
57 0 9 -4 23 -10 33 -5 9 -28 73 -51 142 -23 69 -47 139 -54 155 -6 17 -20 55
-30 85 -10 30 -28 78 -41 106 -13 28 -24 58 -24 66 0 8 -7 23 -15 34 -8 10
-15 27 -15 37 0 9 -11 35 -25 57 -14 22 -25 49 -25 60 0 11 -4 20 -9 20 -5 0
-13 10 -16 23 -11 34 -118 252 -127 255 -4 2 -8 12 -8 23 0 10 -3 19 -8 19 -4
0 -19 21 -32 48 -14 26 -27 49 -30 52 -7 7 -29 43 -37 60 -4 8 -12 20 -17 27
-31 35 -36 43 -36 57 0 8 -3 16 -7 18 -5 2 -24 26 -43 53 -19 28 -38 55 -42
60 -77 99 -203 241 -273 306 -92 86 -98 91 -215 181 -85 65 -102 86 -89 106 6
10 32 26 58 36 59 23 141 65 162 82 8 8 21 14 28 14 6 0 22 11 35 25 13 14 27
25 32 25 12 0 144 136 144 148 0 6 4 12 8 14 13 5 92 140 92 157 0 9 6 28 14
43 8 14 20 73 27 130 20 170 -14 531 -71 733 -31 110 -82 215 -126 259 -37 38
-48 80 -34 134 7 26 19 56 27 67 7 11 13 29 13 42 0 12 5 25 10 28 6 3 10 49
10 103 0 84 -4 109 -31 182 -44 120 -46 133 -17 147 21 11 88 24 223 43 58 8
232 55 257 70 10 6 23 10 30 10 52 0 451 199 466 233 2 4 12 7 23 7 10 0 19 4
19 10 0 5 13 16 29 25 16 8 35 20 43 27 7 7 34 29 58 48 25 19 47 38 48 42 2
4 8 8 13 8 20 0 275 268 288 302 5 15 36 45 59 57 18 10 17 13 -15 78 -63 129
-105 292 -122 473 -4 52 -9 88 -10 80z m-2791 -1128 c19 -14 40 -30 45 -34 6
-5 28 -22 50 -38 22 -16 45 -33 50 -37 59 -46 60 -46 138 -9 99 48 182 66 307
66 179 0 326 -54 418 -155 69 -76 87 -131 87 -270 0 -97 -3 -116 -26 -165 -47
-101 -116 -162 -242 -215 -64 -27 -72 -28 -180 -22 -61 4 -141 9 -177 13 -84
8 -104 -5 -102 -65 3 -80 44 -113 160 -131 110 -17 170 5 282 107 113 103 171
124 240 88 113 -58 195 -339 219 -749 9 -153 3 -264 -20 -336 -41 -129 -154
-269 -285 -353 -136 -88 -269 -127 -437 -127 -193 0 -334 44 -438 137 -129
116 -235 359 -295 678 -17 87 -23 272 -27 810 -1 145 13 320 33 415 32 156 45
206 52 215 4 5 8 22 8 37 0 16 7 45 15 65 8 19 15 42 15 49 0 22 29 50 53 51
12 1 37 -10 57 -25z"/>
<path d="M16111 13599 c-70 -13 -181 -71 -239 -124 -274 -247 -417 -879 -313
-1379 46 -221 133 -423 223 -521 162 -178 513 -195 764 -39 130 80 236 215
263 335 13 56 14 266 1 389 -31 295 -100 526 -163 546 -20 6 -49 -14 -149
-101 -35 -31 -88 -68 -118 -83 -49 -24 -66 -27 -150 -26 -126 0 -188 21 -250
84 -36 35 -50 58 -60 99 -24 102 7 177 86 207 42 16 59 16 216 4 l170 -13 86
44 c71 36 93 53 119 92 78 116 63 315 -30 393 -102 85 -294 125 -456 93z m238
-192 c23 -15 51 -42 61 -60 22 -36 27 -112 9 -150 -21 -47 -43 -51 -256 -43
-208 7 -234 13 -248 57 -18 56 38 161 108 204 40 24 49 26 163 23 113 -3 123
-5 163 -31z"/>
<path d="M16052 13303 l-37 -38 90 -6 c50 -4 120 -7 158 -8 60 -1 67 1 67 18
0 11 -14 31 -31 45 -28 24 -38 26 -121 26 l-90 0 -36 -37z"/>
<path d="M8390 14326 c0 -8 4 -17 9 -20 5 -3 23 -34 40 -68 36 -70 109 -182
140 -215 12 -12 21 -24 21 -27 0 -3 11 -17 25 -32 l25 -27 -13 39 c-8 21 -17
57 -21 79 -6 28 -23 56 -65 100 -31 33 -78 89 -105 123 -27 34 -51 62 -52 62
-2 0 -4 -6 -4 -14z"/>
<path d="M8903 14240 c-189 -26 -224 -106 -129 -302 52 -110 66 -156 66 -223
0 -62 -13 -108 -42 -151 -49 -72 -153 -72 -306 0 -108 51 -120 53 -162 31
-110 -57 -209 -358 -266 -810 -26 -198 -26 -644 -1 -803 32 -201 79 -319 167
-415 118 -129 327 -184 601 -158 342 32 513 147 551 370 21 125 -14 283 -137
622 -116 316 -149 517 -142 849 6 292 39 486 132 786 19 62 35 116 35 122 0
11 -99 56 -155 70 -64 16 -145 20 -212 12z m-196 -956 c42 -31 71 -111 83
-227 13 -123 12 -313 -1 -362 -20 -73 -77 -115 -154 -115 -135 0 -195 106
-195 339 0 131 10 187 49 277 49 113 136 148 218 88z"/>
<path d="M8607 13192 c-9 -10 -27 -45 -39 -78 -30 -81 -32 -282 -5 -362 25
-70 73 -94 112 -55 15 15 17 39 13 217 -4 179 -6 206 -25 249 -24 52 -32 56
-56 29z"/>
<path d="M14766 14239 c-180 -24 -211 -104 -117 -306 60 -130 74 -189 61 -269
-27 -162 -136 -195 -339 -100 -53 25 -109 46 -124 46 -40 0 -108 -67 -145
-145 -47 -95 -79 -201 -112 -365 -56 -283 -65 -386 -65 -735 1 -353 10 -446
63 -600 97 -279 328 -393 723 -356 351 33 518 150 552 385 17 120 -10 236
-157 661 -77 222 -111 382 -126 590 -23 303 33 701 144 1024 14 41 26 80 26
86 0 12 -86 54 -150 73 -54 16 -158 21 -234 11z m-177 -967 c62 -65 75 -124
78 -367 4 -204 3 -211 -19 -249 -40 -69 -132 -96 -212 -62 -44 18 -70 54 -98
134 -20 57 -23 86 -22 197 0 114 4 140 28 215 22 67 37 94 71 128 38 38 47 42
90 42 43 0 52 -4 84 -38z"/>
<path d="M14457 13143 c-30 -63 -32 -77 -35 -195 -4 -132 10 -210 46 -250 20
-24 57 -23 82 2 18 18 20 33 20 153 -1 212 -28 357 -67 357 -8 0 -28 -30 -46
-67z"/>
<path d="M11328 13609 c-30 -17 -68 -93 -68 -135 0 -35 6 -44 45 -77 33 -28
57 -62 90 -130 67 -141 86 -218 92 -382 4 -131 3 -148 -25 -255 -16 -63 -55
-182 -87 -265 -140 -364 -185 -525 -188 -670 -2 -106 24 -162 97 -211 94 -62
200 -67 416 -18 85 20 104 35 124 105 37 124 31 327 -25 774 -39 313 -49 593
-25 715 33 168 99 259 194 267 114 10 192 -96 224 -304 13 -88 -1 -286 -38
-532 -55 -368 -66 -467 -67 -626 -1 -266 27 -351 130 -402 53 -26 67 -28 168
-27 154 1 279 37 341 99 21 21 24 34 24 99 0 89 -30 269 -64 388 -14 47 -59
171 -101 274 -89 220 -140 380 -156 497 -13 88 -7 173 26 387 22 143 20 236
-7 290 -47 91 -148 139 -313 147 -118 6 -231 -9 -300 -41 -45 -20 -145 -108
-145 -127 0 -4 -16 -13 -35 -19 -52 -17 -99 10 -150 83 -58 85 -130 124 -177
96z"/>
<path d="M11600 13570 c0 -4 6 -12 13 -18 9 -8 16 -6 24 7 10 16 8 19 -13 19
-13 0 -24 -4 -24 -8z"/>
<path d="M11307 13175 c3 -16 14 -46 25 -65 24 -44 15 -4 -13 55 -15 34 -17
36 -12 10z"/>
<path d="M21287 12838 c-117 -40 -204 -154 -242 -316 -17 -70 -16 -197 1 -312
19 -124 120 -308 228 -415 104 -103 252 -164 366 -151 206 24 340 209 343 470
1 159 -36 293 -118 431 -23 39 -44 75 -46 80 -9 24 -164 157 -210 180 -110 56
-223 68 -322 33z m353 -228 c0 -6 8 -10 18 -8 11 2 18 -4 20 -19 2 -13 8 -20
16 -17 13 5 31 -24 22 -33 -6 -6 -106 69 -106 79 0 4 7 8 15 8 8 0 15 -5 15
-10z"/>
<path d="M21105 11980 c9 -16 18 -30 21 -30 2 0 -2 14 -11 30 -9 17 -18 30
-21 30 -2 0 2 -13 11 -30z"/>
<path d="M2435 11838 c-399 -32 -975 -241 -1266 -459 -25 -19 -75 -54 -110
-79 -107 -76 -259 -234 -333 -347 -150 -230 -245 -515 -266 -801 -22 -289 39
-397 302 -538 l133 -71 6 -52 c11 -86 49 -149 123 -203 35 -27 67 -48 70 -48
3 0 26 -16 52 -35 25 -19 51 -35 57 -35 7 0 25 -14 41 -30 16 -17 35 -30 41
-30 7 0 33 -16 58 -35 25 -19 50 -35 54 -35 5 0 30 -13 55 -29 36 -23 49 -39
63 -78 53 -151 68 -183 115 -237 27 -33 68 -72 92 -88 39 -26 221 -118 235
-118 3 0 33 -21 67 -46 33 -26 108 -69 166 -97 58 -27 152 -72 210 -100 120
-57 181 -77 230 -76 24 1 78 -19 165 -61 168 -80 223 -94 345 -87 52 2 106 9
120 15 24 9 24 10 -25 33 -182 84 -310 226 -345 383 -15 69 -10 79 34 61 55
-23 57 -21 54 53 -3 93 19 205 54 281 28 61 29 65 12 78 -14 10 -19 10 -29 -4
-11 -14 -12 -14 -18 6 -3 11 -12 21 -21 21 -9 0 -16 6 -16 14 0 11 9 13 38 9
20 -3 39 -10 40 -15 9 -20 42 -5 66 32 31 48 32 50 6 50 -11 0 -20 4 -20 9 0
5 -11 12 -25 15 -36 9 -31 25 22 80 51 51 69 54 133 22 26 -12 31 -11 68 18
l40 32 -41 15 c-23 8 -41 19 -40 24 3 14 41 19 56 7 28 -22 66 -21 118 2 52
23 53 24 29 34 -25 11 -24 11 8 11 17 1 32 -3 32 -9 0 -5 5 -10 10 -10 6 0 9
6 8 13 -4 15 64 12 146 -9 32 -8 61 -12 64 -10 8 8 -71 98 -120 136 -64 52
-113 73 -258 115 -69 20 -141 44 -160 54 -19 11 -61 32 -93 49 -31 17 -83 36
-115 42 -31 7 -111 28 -177 47 -139 41 -185 51 -269 58 -34 3 -104 19 -156 36
-136 43 -250 49 -354 19 -42 -13 -108 -43 -147 -66 -68 -42 -70 -43 -121 -33
-90 17 -139 26 -273 48 -71 12 -154 26 -184 31 -107 20 -190 5 -257 -46 -24
-19 -51 -34 -60 -34 -28 0 -230 110 -267 145 -20 19 -41 51 -48 73 -15 51 -6
259 15 372 50 259 206 582 348 722 71 70 283 206 468 301 85 43 193 101 240
128 138 79 333 151 485 178 144 26 199 30 350 26 170 -4 294 -21 440 -62 145
-40 206 -68 470 -218 354 -202 526 -297 530 -293 1 2 25 33 53 70 36 48 47 69
39 77 -6 6 -14 11 -17 11 -4 0 -53 26 -111 58 -186 104 -438 235 -626 326
-188 91 -467 171 -633 181 -153 10 -184 10 -275 3z m575 -2948 c0 -5 -4 -10
-10 -10 -5 0 -10 5 -10 10 0 6 5 10 10 10 6 0 10 -4 10 -10z m-56 -39 c3 -5 0
-11 -7 -14 -8 -3 -21 -20 -31 -39 l-17 -33 6 40 c4 22 9 43 11 47 7 11 32 10
38 -1z"/>
<path d="M14038 11449 c31 -81 34 -83 86 -75 l48 7 -49 31 c-26 16 -60 41 -75
55 l-27 26 17 -44z"/>
<path d="M6230 11286 c0 -2 7 -9 15 -16 9 -7 15 -8 15 -2 0 5 -7 12 -15 16 -8
3 -15 4 -15 2z"/>
<path d="M6368 11164 c149 -140 262 -297 347 -481 33 -72 55 -102 55 -75 0 4
24 41 54 82 l54 75 -22 26 c-11 15 -32 41 -44 58 -49 64 -245 251 -263 251 -4
0 -19 10 -32 23 -14 12 -60 42 -103 67 -44 24 -85 50 -92 57 -7 7 -23 13 -34
13 -16 0 4 -24 80 -96z"/>
<path d="M20786 11148 c227 -252 294 -607 189 -1011 -55 -213 -125 -388 -288
-713 -162 -324 -245 -537 -282 -729 -57 -293 55 -810 332 -1530 258 -671 361
-1020 419 -1421 21 -141 23 -444 5 -604 -77 -679 -383 -1114 -908 -1289 -409
-137 -979 -113 -1458 61 -275 100 -522 246 -676 397 -48 48 -84 80 -82 71 11
-32 45 -100 61 -122 10 -13 26 -40 37 -60 11 -21 23 -38 27 -38 3 0 9 -9 13
-20 12 -39 274 -290 303 -290 6 0 12 -4 14 -8 3 -8 95 -72 104 -72 2 0 21 -10
42 -23 55 -35 233 -107 262 -107 15 0 30 -4 36 -10 14 -14 288 -70 343 -70 28
0 58 8 78 20 32 19 33 19 145 -1 96 -18 154 -21 378 -22 237 0 276 2 365 22
55 12 126 27 158 33 31 6 57 15 57 20 0 4 9 8 21 8 11 0 46 12 77 26 31 14 73
33 92 42 46 21 174 102 178 113 2 5 8 9 13 9 21 0 229 205 229 226 0 3 13 23
29 43 62 79 167 293 186 381 4 19 11 40 15 45 4 6 10 26 14 45 3 19 13 67 21
105 47 214 65 607 37 808 -12 85 -12 90 10 126 23 38 23 41 11 167 -15 165
-31 291 -42 329 -5 17 -16 64 -26 105 -20 93 -75 272 -86 285 -5 5 -9 15 -9
23 0 22 -96 279 -120 324 -6 10 -10 24 -10 32 0 8 -6 27 -14 43 -27 51 -46
101 -46 116 0 9 -4 19 -10 22 -5 3 -10 16 -10 28 0 13 -6 31 -14 42 -7 11 -15
31 -18 45 -3 14 -22 70 -41 125 -19 55 -47 141 -62 190 -15 50 -31 101 -36
114 -6 14 -14 43 -19 65 -5 23 -16 68 -25 101 -9 33 -20 80 -25 105 -16 88
-31 176 -42 240 -18 113 4 426 32 454 6 6 10 19 10 30 0 25 26 101 64 188 9
20 16 40 16 44 0 9 1 12 148 314 55 113 109 225 120 250 11 25 32 71 46 102
14 31 26 60 26 63 0 4 6 21 14 38 16 35 67 188 84 252 58 214 74 385 52 552
-11 80 -35 192 -50 228 -71 168 -92 207 -146 267 -13 15 -24 30 -24 33 0 5
-84 89 -124 122 -56 48 -237 153 -263 153 -3 0 17 -24 43 -52z"/>
<path d="M4933 11169 c-377 -36 -570 -165 -627 -416 -50 -224 14 -476 252
-994 232 -504 316 -779 329 -1074 17 -410 -104 -1034 -372 -1905 -403 -1310
-453 -2031 -168 -2381 52 -63 141 -132 216 -168 170 -81 321 -107 687 -122
445 -18 544 -7 675 72 234 140 412 444 444 756 21 203 -6 302 -361 1308 -270
767 -324 931 -387 1185 -109 440 -156 894 -117 1128 49 289 175 489 348 549
75 25 188 23 251 -5 152 -68 243 -200 308 -446 60 -228 61 -348 8 -871 -46
-449 -37 -576 50 -728 90 -158 186 -204 332 -161 101 30 226 186 264 329 22
86 19 267 -10 548 -49 480 -53 655 -20 887 35 243 125 398 274 472 39 19 62
23 151 23 96 0 110 -3 165 -29 149 -73 253 -241 299 -485 44 -231 47 -652 7
-876 -62 -344 -170 -681 -395 -1237 -157 -390 -262 -715 -321 -998 -36 -170
-45 -442 -21 -608 29 -196 99 -390 186 -517 117 -170 294 -292 495 -344 138
-35 254 -44 475 -37 407 12 579 54 748 181 231 174 482 655 482 924 0 86 -46
237 -224 729 -382 1059 -725 2259 -768 2692 -32 321 67 701 358 1376 197 456
304 739 304 802 0 70 -136 212 -263 275 -109 53 -217 77 -377 84 -691 29
-1298 -296 -1585 -848 -27 -52 -95 -206 -150 -344 -56 -137 -105 -249 -110
-248 -8 2 -292 579 -404 821 -76 165 -142 264 -240 363 -200 199 -461 307
-821 339 -130 11 -246 11 -367 -1z"/>
<path d="M11480 11029 c-413 -28 -683 -141 -765 -321 -35 -78 -49 -182 -35
-270 25 -164 74 -302 223 -621 219 -467 277 -683 264 -973 -20 -419 -149 -954
-387 -1614 -207 -570 -280 -797 -356 -1105 -90 -361 -120 -603 -110 -870 14
-407 84 -570 315 -746 179 -136 525 -269 825 -316 170 -26 487 -24 624 6 381
81 594 271 713 633 58 178 98 515 83 708 -27 364 -136 765 -384 1410 -263 684
-384 1142 -397 1510 -12 335 61 583 346 1170 156 320 207 445 252 617 67 257
28 496 -101 617 -114 106 -269 146 -656 166 -210 11 -285 11 -454 -1z"/>
<path d="M14720 11034 c-241 -14 -516 -57 -675 -105 -239 -74 -374 -182 -400
-320 -8 -44 7 -79 252 -589 193 -400 245 -522 302 -709 121 -393 165 -755 143
-1154 -39 -682 -200 -1403 -556 -2484 -198 -603 -209 -642 -202 -734 14 -204
141 -392 360 -534 300 -195 591 -257 1056 -226 586 40 1032 174 1401 422 708
476 1069 1384 1069 2694 0 663 -101 1240 -341 1940 -158 464 -337 830 -536
1096 -97 131 -263 302 -373 385 -206 156 -489 256 -847 300 -123 15 -517 26
-653 18z m950 -761 c253 -68 434 -323 540 -757 64 -260 76 -590 30 -808 -74
-351 -247 -640 -440 -738 -318 -161 -587 17 -649 430 -13 88 -101 1401 -101
1513 0 165 95 294 260 352 98 35 250 38 360 8z"/>
<path d="M15478 9883 c-10 -2 -18 -11 -18 -19 0 -41 91 -1374 95 -1404 10 -62
36 -130 50 -130 23 0 93 87 128 161 83 172 120 330 107 458 -5 47 -12 167 -15
266 -7 163 -10 191 -42 300 -52 184 -124 314 -192 349 -31 17 -89 26 -113 19z"/>
<path d="M19375 11029 c-415 -27 -682 -138 -768 -321 -86 -183 -44 -400 165
-842 171 -364 235 -539 270 -740 17 -102 20 -145 14 -276 -17 -440 -143 -947
-435 -1758 -227 -628 -335 -1010 -397 -1412 -22 -142 -25 -506 -5 -650 33
-239 114 -378 300 -521 128 -98 386 -213 605 -269 197 -51 311 -64 536 -64
228 1 335 17 492 74 406 148 610 542 611 1180 1 383 -96 775 -365 1475 -223
580 -332 937 -388 1276 -27 161 -36 387 -21 504 33 249 132 527 319 895 217
426 305 687 304 900 0 181 -41 299 -132 384 -114 107 -267 145 -658 166 -207
11 -270 11 -447 -1z"/>
<path d="M3481 9264 c-30 -8 -77 -27 -104 -42 -66 -35 -194 -154 -223 -206
-119 -211 -148 -306 -147 -483 2 -214 87 -369 241 -441 49 -23 70 -27 144 -26
82 0 92 3 175 44 150 74 267 213 348 415 23 56 32 113 41 237 5 86 3 121 -11
180 -43 178 -135 287 -271 323 -71 18 -122 18 -193 -1z m-101 -233 c0 -11
-100 -84 -106 -78 -9 9 9 38 22 33 8 -3 14 4 16 17 2 15 9 21 21 19 9 -2 17 2
17 8 0 5 7 10 15 10 8 0 15 -4 15 -9z"/>
<path d="M7445 8628 c-28 -144 -24 -414 9 -728 15 -140 28 -256 30 -257 5 -6
34 139 52 257 13 93 15 158 11 340 -4 130 -12 258 -21 302 -17 91 -44 178 -56
178 -4 0 -16 -42 -25 -92z"/>
<path d="M5946 8636 c-9 -23 -24 -76 -32 -117 -27 -127 -7 -436 47 -730 13
-65 25 -119 29 -119 7 0 48 413 56 570 5 83 2 140 -9 205 -18 99 -53 221 -66
229 -5 3 -16 -14 -25 -38z"/>
<path d="M3905 8459 c-4 -6 -5 -12 -2 -15 2 -3 7 2 10 11 7 17 1 20 -8 4z"/>
<path d="M3870 8390 c-11 -22 -18 -40 -15 -40 2 0 14 18 25 40 11 22 18 40 15
40 -2 0 -14 -18 -25 -40z"/>
<path d="M6320 6596 c0 -2 72 -207 160 -456 160 -451 231 -672 266 -825 19
-78 19 -79 22 -35 5 82 33 273 58 399 25 124 25 169 -1 221 -12 23 -34 84 -57
156 -6 18 -8 43 -4 58 6 24 9 25 97 28 l90 3 84 225 c47 124 85 225 85 226 0
1 -44 -20 -97 -47 -218 -109 -463 -103 -649 16 -30 19 -54 33 -54 31z"/>
</g>
</svg>
